<?xml version="1.0" encoding="utf-8"?>
<!-- Generator: Adobe Illustrator 20.1.0, SVG Export Plug-In . SVG Version: 6.00 Build 0)  -->
<svg version="1.1" baseProfile="tiny" id="Capa_1" xmlns="http://www.w3.org/2000/svg" xmlns:xlink="http://www.w3.org/1999/xlink"
	 x="0px" y="0px" viewBox="0 0 512 512" overflow="scroll" xml:space="preserve">
<g>
	<path fill="#FFDA44" d="M512,103.1c0-24.3-14-46.8-39.6-63.5C448.1,23.7,415.9,15,381.8,15s-66.3,8.7-90.6,24.6
		c-25.5,16.7-39.6,39.2-39.6,63.5v65.1c0,24.3,14,46.8,39.6,63.5c22.2,14.5,50.9,23,81.6,24.4v61.5c0,40.7-33.1,73.8-73.8,73.8
		c-40.4,0-73.2-33.6-73.2-75V173.1c0-50.6-41-91.8-91.5-91.8c-50.6,0-91.8,41.2-91.8,91.8v190C33.5,375.3,0,421.6,0,445.3
		C0,473.8,23.2,497,51.7,497s51.7-23.2,51.7-51.7c0-23.7-33.5-70-42.7-82.2v-190c0-40.7,33.1-73.8,73.8-73.8
		c40.5,0,73.5,33.1,73.5,73.8v143.2c0,51.3,40.9,93,91.2,93c50.6,0,91.8-41.2,91.8-91.8V256c30.7-1.4,59.4-9.9,81.5-24.4
		C498,215,512,192.4,512,168.2L512,103.1L512,103.1z M51.7,479C33.1,479,18,463.9,18,445.3c0-12.8,18.5-42.8,33.7-64
		c15.2,21.2,33.7,51.2,33.7,64C85.4,463.9,70.3,479,51.7,479z M301.1,54.7c21.4-14,50.1-21.7,80.8-21.7s59.3,7.7,80.8,21.7
		c20.3,13.2,31.4,30.4,31.4,48.4c0,5.7-1.1,11.2-3.3,16.6C467,95.3,426,80.1,381.9,80.1c-44.2,0-85.2,15.2-108.9,39.7
		c-2.1-5.4-3.3-11-3.3-16.6C269.7,85.1,280.8,67.9,301.1,54.7z M481,135.7c-4.9,5.7-11,11-18.4,15.8c-21.4,14-50.1,21.7-80.8,21.7
		s-59.3-7.7-80.8-21.7c-7.4-4.8-13.5-10.1-18.4-15.8c19.5-23,57.5-37.6,99.1-37.6C423.5,98.1,461.5,112.6,481,135.7z M494,168.2
		c0,18-11.2,35.2-31.4,48.4c-21.4,14-50.1,21.7-80.8,21.7s-59.3-7.7-80.8-21.7c-20.3-13.2-31.4-30.4-31.4-48.4v-20.1
		c5.9,6.7,13.1,12.9,21.6,18.4c24.3,15.9,56.5,24.6,90.6,24.6s66.3-8.7,90.6-24.6c8.5-5.5,15.7-11.8,21.6-18.4V168.2z"/>
	<circle fill="#FFDA44" cx="308.8" cy="196.7" r="9.8"/>
	<circle fill="#FFDA44" cx="379.7" cy="216.5" r="9.8"/>
	<circle fill="#FFDA44" cx="451" cy="198.1" r="9.8"/>
	<circle fill="#FFDA44" cx="451" cy="75" r="9.8"/>
	<circle fill="#FFDA44" cx="380.1" cy="55.3" r="9.8"/>
	<circle fill="#FFDA44" cx="308.5" cy="74" r="9.8"/>
</g>
</svg>
