<?xml version="1.0" encoding="utf-8"?>
<!-- Generator: Adobe Illustrator 20.1.0, SVG Export Plug-In . SVG Version: 6.00 Build 0)  -->
<svg version="1.1" baseProfile="tiny" id="Capa_1" xmlns="http://www.w3.org/2000/svg" xmlns:xlink="http://www.w3.org/1999/xlink"
	 x="0px" y="0px" viewBox="0 0 512 512" overflow="scroll" xml:space="preserve">
<g>
	<path fill="#FFDA44" d="M256,75.9c-88.9,0-161.2,72.3-161.2,161.2c0,67.4,41.6,127.2,104.3,150.8v86.3c0,5.2,4.2,9.5,9.5,9.5h9.5
		v19c0,5.2,4.2,9.5,9.5,9.5h56.9c5.2,0,9.5-4.2,9.5-9.5v-19h9.5c5.2,0,9.5-4.2,9.5-9.5v-86.3c62.7-23.6,104.3-83.3,104.3-150.8
		C417.2,148.2,344.9,75.9,256,75.9z M284.4,464.6c-5.2,0-9.5,4.2-9.5,9.5v19H237v-19c0-5.2-4.2-9.5-9.5-9.5h-9.5v-47.4h75.9v47.4
		H284.4z M300.4,372.1c-3.9,1.3-6.5,4.9-6.5,9v17.1h-75.9v-17.1c0-4.1-2.6-7.7-6.5-9c-58.5-19.2-97.8-73.5-97.8-135
		c0-78.4,63.8-142.2,142.2-142.2S398.2,158.6,398.2,237C398.2,298.6,358.9,352.8,300.4,372.1z"/>
	<path fill="#FFDA44" d="M256,56.9c5.2,0,9.5-4.2,9.5-9.5V9.5c0-5.2-4.2-9.5-9.5-9.5s-9.5,4.2-9.5,9.5v37.9
		C246.5,52.7,250.8,56.9,256,56.9z"/>
	<path fill="#FFDA44" d="M483.6,227.6h-37.9c-5.2,0-9.5,4.2-9.5,9.5s4.2,9.5,9.5,9.5h37.9c5.2,0,9.5-4.2,9.5-9.5
		S488.8,227.6,483.6,227.6z"/>
	<path fill="#FFDA44" d="M66.4,227.6H28.4c-5.2,0-9.5,4.2-9.5,9.5s4.2,9.5,9.5,9.5h37.9c5.2,0,9.5-4.2,9.5-9.5
		S71.6,227.6,66.4,227.6z"/>
	<path fill="#FFDA44" d="M410.2,69.4l-26.8,26.8c-3.7,3.7-3.7,9.7,0,13.4c1.8,1.8,4.3,2.8,6.7,2.8c2.4,0,4.9-0.9,6.7-2.8l26.8-26.8
		c3.7-3.7,3.7-9.7,0-13.4S413.9,65.7,410.2,69.4z"/>
	<path fill="#FFDA44" d="M115.2,364.4l-26.8,26.8c-3.7,3.7-3.7,9.7,0,13.4c1.8,1.8,4.3,2.8,6.7,2.8c2.4,0,4.9-0.9,6.7-2.8l26.8-26.8
		c3.7-3.7,3.7-9.7,0-13.4S118.9,360.7,115.2,364.4z"/>
	<path fill="#FFDA44" d="M396.8,364.4c-3.7-3.7-9.7-3.7-13.4,0s-3.7,9.7,0,13.4l26.8,26.8c1.8,1.8,4.3,2.8,6.7,2.8
		c2.4,0,4.9-0.9,6.7-2.8c3.7-3.7,3.7-9.7,0-13.4L396.8,364.4z"/>
	<path fill="#FFDA44" d="M115.2,109.6c1.8,1.8,4.3,2.8,6.7,2.8s4.9-0.9,6.7-2.8c3.7-3.7,3.7-9.7,0-13.4l-26.8-26.8
		c-3.7-3.7-9.7-3.7-13.4,0c-3.7,3.7-3.7,9.7,0,13.4L115.2,109.6z"/>
	<path fill="#FFDA44" d="M256,123.3c-62.7,0-113.8,51-113.8,113.8c0,5.2,4.2,9.5,9.5,9.5s9.5-4.2,9.5-9.5
		c0-52.3,42.5-94.8,94.8-94.8c5.2,0,9.5-4.2,9.5-9.5C265.5,127.5,261.2,123.3,256,123.3z"/>
</g>
</svg>
