<?xml version="1.0" encoding="utf-8"?>
<!-- Generator: Adobe Illustrator 20.1.0, SVG Export Plug-In . SVG Version: 6.00 Build 0)  -->
<svg version="1.1" baseProfile="tiny" id="Capa_1" xmlns="http://www.w3.org/2000/svg" xmlns:xlink="http://www.w3.org/1999/xlink"
	 x="0px" y="0px" viewBox="0 0 512 512" overflow="scroll" xml:space="preserve">
<g>
	<g>
		<path fill="#FFDA44" d="M432.4,64.6C385.2,52.6,322.5,46,256,46S126.8,52.6,79.6,64.6C26.8,78,0,96.2,0,118.5v58c0,0,0,0,0,0.1v48
			c0,22.3,26.8,40.5,79.6,53.9c44.9,11.4,103.6,17.9,166.4,18.6l0,9.6c-36.1,4.5-64.8,33.2-69.4,69.4h-1.9c-5.5,0-10,4.5-10,10
			s4.5,10,10,10h1.9c4.9,39.4,38.6,70,79.4,70c40.8,0,74.5-30.6,79.4-70.1h1.8c5.5,0,10-4.5,10-10s-4.5-10-10-10h-1.9
			c-4.6-36.1-33.2-64.7-69.3-69.2l0-9.6c10.1-0.1,20.1-0.4,30-0.8c0,0,0,0,0,0c0,0,0.1,0,0.1,0c22.8-0.9,45-2.7,65.9-5.2
			c0.3,0,0.6-0.1,0.9-0.1c0,0,0,0,0,0c6.1-0.7,12-1.5,17.9-2.4c49-7.2,131.2-25.1,131.2-64V118.5C512,96.2,485.2,78,432.4,64.6z
			 M84.5,84C130.2,72.4,191.1,66,256,66s125.8,6.4,171.5,18c50.9,12.9,64.5,27.8,64.5,34.5c0,7.6-14.2,18.7-44.7,28.7
			c-48-18.3-117.4-28.7-191.3-28.7c-73.9,0-143.4,10.5-191.4,28.8C30.2,136,20,124.2,20,118.5C20,111.8,33.6,96.9,84.5,84z
			 M206,275.8c-45.8-2.4-87.8-8.1-121.5-16.7C33.6,246.2,20,231.4,20,224.6v-32c18.8,8.7,39.7,16.3,62.5,22.5
			c0.9,0.2,1.8,0.4,2.7,0.4c4.4,0,8.4-2.9,9.6-7.4c1.5-5.3-1.7-10.8-7-12.3c-25.2-6.9-48-15.5-67.8-25.5v-21.8
			c11.2,7.6,26,13.7,41.7,18.7c0.1,0.1,0.3,0.1,0.4,0.1c11.3,3.5,23.1,6.5,34.4,8.9c33.3,7.1,69.5,11.5,109.5,13.5V275.8z M256,396
			C256,396,256,396,256,396C256,396,256,396,256,396c-5.5,0-10-4.5-10-10c0-5.5,4.5-10,10-10s10,4.5,10,10
			C266,391.5,261.5,396,256,396z M315.1,375.9h-8.5c-5.5,0-10,4.5-10,10s4.5,10,10,10h8.6c-4.2,25.1-24,45-49.2,49.3v-30.9
			c11.6-4.1,20-15.2,20-28.3c0-16.5-13.5-30-30-30s-30,13.5-30,30c0,13,8.4,24.2,20,28.3v30.9c-25.1-4.2-44.9-24.1-49.1-49.1h8.5
			c5.5,0,10-4.5,10-10s-4.5-10-10-10h-8.5c4.8-28.3,29.5-50,59.1-50c0,0,0,0,0,0c0,0,0,0,0,0c0,0,0,0,0,0
			C285.6,326,310.3,347.6,315.1,375.9z M286,276.6c-6.6,0.2-13.3,0.3-20,0.4l0-29.5c0-5.5-4.5-10-10-10c0,0,0,0,0,0
			c-5.5,0-10,4.5-10,10l0,29.5c-6.7-0.1-13.4-0.2-20-0.4v-86.1c9.8,0.3,19.8,0.4,30,0.4c10.2,0,20.2-0.2,30-0.4V276.6z M256,171
			c-59.3,0-110.1-4.7-155.4-14.3c-0.1,0-0.1,0-0.2,0c43-11.7,97.7-18.2,155.5-18.2c57.8,0,112.5,6.5,155.5,18.2
			c-17.1,3.6-35.3,6.6-54.5,8.8c-0.8,0-1.6,0.1-2.3,0.3C324.3,169.2,291.3,171,256,171z M359.9,271.2c-17.2,2.1-35.3,3.6-53.9,4.6
			v-86c17.9-0.9,35.2-2.3,51.7-4.2c24,1.4,33.8,20.2,34.9,37.5C393.9,244,383.1,267.2,359.9,271.2z M492,224.6L492,224.6
			c0,9.9-24.5,27.7-90,40.1c7.8-12.4,11.6-27.6,10.6-43c-1-15.1-7-30.5-18.3-41.4c7.6-1.3,15-2.7,22.3-4.3
			c10.9-2.3,22.3-5.2,33.3-8.6c0.1,0,0.2-0.1,0.3-0.1c15.8-4.9,30.6-11.1,41.8-18.7L492,224.6L492,224.6z"/>
	</g>
</g>
<g>
	<g>
		<path fill="#FFDA44" d="M115.9,202.6l-0.2-0.1c-5.4-1.1-10.7,2.4-11.8,7.8c-1.1,5.4,2.4,10.7,7.8,11.8c0.7,0.2,1.4,0.2,2.1,0.2
			c4.6,0,8.8-3.2,9.8-7.9C124.7,209.1,121.3,203.8,115.9,202.6z"/>
	</g>
</g>
</svg>
