<?xml version="1.0" encoding="utf-8"?>
<!-- Generator: Adobe Illustrator 20.1.0, SVG Export Plug-In . SVG Version: 6.00 Build 0)  -->
<svg version="1.1" baseProfile="tiny" id="Layer_1" xmlns="http://www.w3.org/2000/svg" xmlns:xlink="http://www.w3.org/1999/xlink"
	 x="0px" y="0px" viewBox="0 0 940.1 486.8" xml:space="preserve">
<g>
	<g>
		<g>
			<g id="XMLID_1_">
				<g>
					<path fill="#FFDA44" d="M813,148.1c5.8,3.4,7.7,7,5.9,13.4c-2.9,9.6-5.7,19.3-8,29.1c-1.3,5.5-3.9,7.3-9.5,6.7
						c-9.7-1.1-19.4-1.8-29.1-2.2c-4-0.2-7.9-0.7-11.6-1.6c-3.7-0.9-7.2-2.3-10.6-4.1l-2.3,9.5c-7.7-1.4-15.1-3.4-22-6
						c-0.6-9.5-8.4-17-18-17c-3.2,0-6.1,0.8-8.7,2.2c-9.9-7.8-16.8-17.2-19.6-27.1c3.2-3.4,6.8-8.2,10.5-15
						c12.9-23.5,24.5-46.7,43.5-65c1.8-1.8,5.6-3.3,7.8-2.6c11.2,3.5,22.1,7.8,36.1,12.9C772,84,768.9,87,766,86.8
						c-13.2-1-9.3,10.5-12.6,16.5c-3.6,6.7,2.1,9.2,6.4,11.9C777.5,126.3,795,137.5,813,148.1z"/>
					<path fill="#FFDA44" d="M779.7,89.7c0.7,0.8,1.4,1.5,2.1,2.3c-1.7,7.9-4.1,17.7-6.1,27c-6.1-3.7-11-6.6-17.3-10.5
						C765.8,102.4,773.2,95.1,779.7,89.7z"/>
					<path fill="#FFDA44" d="M758.6,356.7c1.7,6.1-2.9,12.1-9.2,12.1h-1.1c-4.4,0-8.3-3-9.3-7.3l-28.6-46.2c0,14.2,0,28.3,0,42.5
						v0.1c0,6.3-6.3,10.7-12.2,8.7c-3.4-1.2-6.1-4.1-8.3-8.8c-10.9-24-22.3-47.8-33.6-71.6c-1-2.3-3.1-5.2-5.1-5.6
						c-20.1-3.6-22.8-4.3-44.4-7.8v88.7c0,5.4-5.4,9.3-10.4,7.4c-2.9-1.1-4.9-3.8-6.4-8.3c-6.9-21.1-14.4-41.9-22.5-65.2v65.8
						c0,3.6-2.4,6.7-5.8,7.6c-11.3,3-14.2,0.4-18.5-12c-8.3-23.6-19.1-46.7-24-71c-5.3-25.7-5.5-52.4-6.6-78.7
						c-0.4-9.8-2.5-15.6-11.5-20.5c-18.6-10.2-19.3-13.7-12.8-35.5c5,0.8,9.5,1.3,13.8,2.4c36,9.5,72.6,4.6,109,5.6
						c17.5,0.5,35-0.1,52.5,0.2c4.2,11.7,12.4,22.8,24.3,32.3c0.6,0.4,1.3,0.9,1.9,1.4c0,0.3,0,0.5,0,0.8c0,9.9,8,18,18,18
						c3.8,0,7.3-1.1,10.2-3.1c8.1,3.2,16.7,5.6,25.7,7.3v0.1c-0.2,1.2-0.6,2.5-1.2,3.9c-1.2,2.6-8,13.1-15.1,25.3L758.6,356.7z"/>
					<polygon fill="#FFDA44" points="468.2,251.1 468.2,303.8 441.7,303.8 441.7,370 389,370 389,303.8 362.5,303.8 362.5,251.1 
											"/>
					<polygon fill="#FFDA44" points="468.2,214.7 468.2,235.6 398.9,235.6 398.9,152.2 468.2,152.2 468.2,173.1 435.8,173.1 
						435.8,183.5 458.3,183.5 458.3,204.4 435.8,204.4 435.8,214.7 					"/>
					<polygon fill="#FFDA44" points="390.5,152.2 390.5,173.1 358.8,173.1 358.8,188.3 382.3,188.3 382.3,209.2 358.8,209.2 
						358.8,235.6 321.9,235.6 321.9,152.2 					"/>
					<polygon fill="#FFDA44" points="355.3,340.1 355.3,370 256.5,370 256.5,251.1 355.3,251.1 355.3,280.9 309.1,280.9 
						309.1,295.6 341.2,295.6 341.2,325.5 309.1,325.5 309.1,340.1 					"/>
					<path fill="#FFDA44" d="M284.6,152.2l29,83.4h-36.9l-4.9-14.1h-27.1l-4.8,14.1H203l29-83.4H284.6z M265.1,201.8l-6.8-20.7
						l-6.8,20.7H265.1z"/>
					<path fill="#FFDA44" d="M198.2,198.5c1.7,3.2,2.6,6.9,2.6,11.2c0,8.9-3.4,15.7-10.2,20.4c-6.8,4.7-16.7,7-29.9,7
						c-14.7,0-27.4-2.1-38.1-6.3l9-27.9c2.7,4.1,5.9,7.3,9.8,9.7c3.9,2.4,7.6,3.6,11.2,3.6c1.7,0,3.2-0.5,4.4-1.4
						c1.2-0.9,1.8-2,1.8-3.2c0-1.3-0.6-2.5-1.7-3.6c-1.1-1.1-4.2-2.7-9.1-4.7c-4.4-1.8-8.1-3.5-11-5.2c-2.9-1.7-5.5-4.1-7.6-7.2
						c-2.1-3.2-3.2-7.1-3.2-11.9c0-9.2,3.4-16.2,10.1-20.9c6.7-4.7,16.6-7.1,29.8-7.1c12,0,23.2,1.9,33.4,5.6l-9.2,26.3
						c-6-8.1-12.9-12.2-20.7-12.2c-4.3,0-6.5,1.6-6.5,4.9c0,1,0.6,2,2,3.1c1.3,1.1,4.9,2.7,10.7,5c6.3,2.6,11.3,4.8,14.7,6.9
						C193.9,192.7,196.5,195.3,198.2,198.5z"/>
					<path fill="#FFDA44" d="M183.1,283.8c3.4,2,7.5,1,9.4-2.4c1.9-3.3,0.6-7.5-2.7-9.4c-3.2-1.8-7.3-0.7-9.2,2.5
						C178.6,277.9,179.7,281.9,183.1,283.8z M207.8,290.9c-1.9,3.2-0.9,7.3,2.2,9.3c3.3,2.2,7.5,1.3,9.5-2c2.1-3.3,1.1-7.5-2.2-9.6
						C214.1,286.6,209.8,287.6,207.8,290.9z M195.7,286.5c-4.5,0-9.1,1.1-13.6,2.1c-1.4,0.3-2.5,1.7-3,2.1c-3.3,5.4-2.2,9.3,3,11.1
						c4.9,1.8,9.4,3.9,12.9,7.8c0.9,1,2.7,1.7,4.1,1.7c4.1,0.1,6.2-2.2,6.6-6.9c0.4-5.3-1.1-10.1-4.3-14.3
						C200.1,288.4,197.6,286.5,195.7,286.5z M243.3,291.3c0,11.2-3.9,20.6-11.6,28.4c-7.8,7.8-17.1,11.7-28,11.7
						c-9.1,0-18.2-3.5-27.2-10.4v49h-52.6V251.1H196c15.2,0,26.9,3.8,35.1,11.6C239.2,270.4,243.3,279.9,243.3,291.3z M212.2,282.2
						c2.3-4,1.1-9.1-2.7-11.4c-4-2.5-9.3-1.1-11.7,3.2c-2.2,4-0.9,9,2.9,11.3C204.7,287.7,209.8,286.3,212.2,282.2z"/>
				</g>
				<g>
				</g>
			</g>
		</g>
	</g>
</g>
</svg>
