<?xml version="1.0" encoding="utf-8"?>
<!-- Generator: Adobe Illustrator 19.1.0, SVG Export Plug-In . SVG Version: 6.00 Build 0)  -->
<svg version="1.1" id="Layer_1" xmlns="http://www.w3.org/2000/svg" xmlns:xlink="http://www.w3.org/1999/xlink" x="0px" y="0px"
	 viewBox="0 0 595.3 841.9" style="enable-background:new 0 0 595.3 841.9;" xml:space="preserve">
<g>
	<g>
		<g>
			<path d="M157,569.9c-1.2,0.9-2.7,1.4-4.4,1.4c-3.6,0-7.3-1.2-11.2-3.6c-3.9-2.4-7.1-5.6-9.8-9.7l-9,27.9
				c10.7,4.2,23.4,6.3,38.1,6.3c13.2,0,23.1-2.3,29.9-7c6.8-4.7,10.2-11.5,10.2-20.4c0-4.3-0.9-8-2.6-11.2c-1.7-3.2-4.3-5.8-7.7-7.9
				c-3.4-2.1-8.4-4.3-14.7-6.9c-5.8-2.3-9.4-3.9-10.7-5c-1.4-1.1-2-2.1-2-3.1c0-3.3,2.2-4.9,6.5-4.9c7.8,0,14.7,4.1,20.7,12.2
				l9.2-26.3c-10.2-3.7-21.4-5.6-33.4-5.6c-13.2,0-23.1,2.4-29.8,7.1c-6.7,4.7-10.1,11.7-10.1,20.9c0,4.8,1.1,8.7,3.2,11.9
				c2.1,3.1,4.7,5.5,7.6,7.2c2.9,1.7,6.6,3.4,11,5.2c4.9,2,8,3.6,9.1,4.7c1.1,1.1,1.7,2.3,1.7,3.6C158.8,567.9,158.2,569,157,569.9z
				"/>
		</g>
		<g>
			<path d="M276.7,590.7h36.9l-29-83.4H232l-29,83.4h36.9l4.8-14.1h27.1L276.7,590.7z M251.5,556.9l6.8-20.7l6.8,20.7H251.5z"/>
		</g>
		<g>
			<polygon points="382.3,543.4 358.8,543.4 358.8,528.2 390.5,528.2 390.5,507.3 321.9,507.3 321.9,590.7 358.8,590.7 358.8,564.3 
				382.3,564.3 			"/>
		</g>
		<g>
			<polygon points="468.2,528.2 468.2,507.3 398.9,507.3 398.9,590.7 468.2,590.7 468.2,569.8 435.8,569.8 435.8,559.5 458.3,559.5 
				458.3,538.6 435.8,538.6 435.8,528.2 			"/>
		</g>
		<g>
			<path d="M196,606.2h-72.1v118.9h52.6v-49c9,6.9,18.1,10.4,27.2,10.4c10.9,0,20.2-3.9,28-11.7c7.7-7.8,11.6-17.2,11.6-28.4
				c0-11.4-4.1-20.9-12.2-28.6C222.9,610,211.2,606.2,196,606.2z M197.8,629.1c2.4-4.3,7.7-5.7,11.7-3.2c3.8,2.3,5,7.4,2.7,11.4
				c-2.4,4.1-7.5,5.5-11.5,3.1C196.9,638.1,195.6,633,197.8,629.1z M180.6,629.6c1.9-3.2,6-4.3,9.2-2.5c3.3,1.9,4.6,6.1,2.7,9.4
				c-1.9,3.4-6,4.4-9.4,2.4C179.7,637,178.6,633,180.6,629.6z M205.7,659.5c-0.4,4.7-2.5,7-6.6,6.9c-1.4,0-3.2-0.7-4.1-1.7
				c-3.5-3.9-8-6-12.9-7.8c-5.2-1.8-6.3-5.7-3-11.1c0.5-0.4,1.6-1.8,3-2.1c4.5-1,9.1-2.1,13.6-2.1c1.9,0,4.4,1.9,5.7,3.6
				C204.6,649.4,206.1,654.2,205.7,659.5z M219.5,653.3c-2,3.3-6.2,4.2-9.5,2c-3.1-2-4.1-6.1-2.2-9.3c2-3.3,6.3-4.3,9.5-2.3
				C220.6,645.8,221.6,650,219.5,653.3z"/>
		</g>
		<g>
			<polygon points="256.5,725.1 355.3,725.1 355.3,695.2 309.1,695.2 309.1,680.6 341.2,680.6 341.2,650.7 309.1,650.7 309.1,636 
				355.3,636 355.3,606.2 256.5,606.2 			"/>
		</g>
		<g>
			<polygon points="362.5,658.8 389,658.8 389,725.1 441.7,725.1 441.7,658.8 468.2,658.8 468.2,606.2 362.5,606.2 			"/>
		</g>
	</g>
	<g>
		<g>
			<path d="M392.4,328c9.1-15.6,17.8-28.9,19.2-32.3c0.8-1.8,1.3-3.5,1.5-5l0-0.1c-11.5-2.1-22.5-5.3-32.9-9.3c-3.7,2.5-8.2,4-13,4
				c-12.7,0-23-10.3-23-23c0-0.3,0-0.7,0-1c-0.8-0.6-1.6-1.2-2.4-1.8c-15.1-12.1-25.6-26.3-31-41.3c-22.3-0.3-44.7,0.4-67-0.2
				c-46.4-1.3-93.2,4.9-139.1-7.1c-5.5-1.4-11.3-2-17.6-3.1c-8.3,27.9-7.4,32.3,16.3,45.3c11.5,6.3,14.2,13.7,14.7,26.1
				c1.3,33.6,1.7,67.7,8.4,100.4c6.3,31,20.1,60.5,30.6,90.6c5.5,15.8,9.1,19.2,23.6,15.4c4.4-1.2,7.4-5.1,7.4-9.7v-84
				c10.3,29.8,20,56.3,28.7,83.2c1.9,5.8,4.4,9.2,8.1,10.5c6.4,2.4,13.2-2.6,13.2-9.4V363.1c27.5,4.5,31.1,5.4,56.7,10
				c2.6,0.5,5.2,4.3,6.5,7.1c14.5,30.4,28.9,60.7,42.9,91.4c2.8,6.1,6.2,9.7,10.6,11.2c7.6,2.6,15.6-3.1,15.6-11.1c0,0,0-0.1,0-0.1
				c0-18.1,0-36.1,0-54.2l36.5,59c1.3,5.5,6.2,9.3,11.9,9.3h1.4c8.1,0,13.9-7.7,11.7-15.5L392.4,328z"/>
		</g>
		<g>
			<path d="M461.9,132.3c-2.2,10.1-5.3,22.6-7.8,34.5c-7.8-4.7-14-8.5-22.1-13.4c9.5-7.8,18.8-17.1,27.2-24
				C460,130.4,461,131.4,461.9,132.3z"/>
		</g>
		<g>
			<path d="M501.7,203.9c-22.9-13.5-45.3-27.8-67.9-41.9c-5.5-3.5-12.8-6.6-8.1-15.2c4.2-7.7-0.8-22.4,16.1-21.1
				c3.7,0.3,7.6-3.5,14.5-7c-17.8-6.5-31.8-12-46.1-16.5c-2.8-0.9-7.7,1-10,3.3c-24.3,23.4-39.1,53-55.5,82.9
				c-4.8,8.6-9.3,14.8-13.4,19.2c3.6,12.7,12.4,24.6,25,34.6c3.3-1.8,7.1-2.8,11.1-2.8c12.2,0,22.2,9.6,22.9,21.6
				c8.8,3.3,18.2,5.9,28.1,7.6l2.9-12.1l0,0c8.7,4.6,18,6.9,28.3,7.3c12.4,0.5,24.8,1.5,37.1,2.8c7.1,0.8,10.5-1.5,12.1-8.5
				c2.9-12.5,6.5-24.8,10.3-37.1C511.5,212.9,509.1,208.3,501.7,203.9z"/>
		</g>
	</g>
</g>
</svg>
