<?xml version="1.0" encoding="utf-8"?>
<!-- Generator: Adobe Illustrator 20.1.0, SVG Export Plug-In . SVG Version: 6.00 Build 0)  -->
<svg version="1.1" baseProfile="tiny" id="Capa_1" xmlns="http://www.w3.org/2000/svg" xmlns:xlink="http://www.w3.org/1999/xlink"
	 x="0px" y="0px" viewBox="0 0 512 512" xml:space="preserve">
<g>
	<g>
		<path fill="#FFDA44" d="M307.2,392.5H204.8c-4.7,0-8.5,3.8-8.5,8.5v51.2c0,4.7,3.8,8.5,8.5,8.5h102.4c4.7,0,8.5-3.8,8.5-8.5v-51.2
			C315.7,396.4,311.9,392.5,307.2,392.5z M298.7,443.7h-85.3v-34.1h85.3V443.7z"/>
	</g>
</g>
<g>
	<g>
		<path fill="#FFDA44" d="M358.4,221.9c-14.1,0-25.6,11.5-25.6,25.6s11.5,25.6,25.6,25.6s25.6-11.5,25.6-25.6
			S372.5,221.9,358.4,221.9z M358.4,256c-4.7,0-8.5-3.8-8.5-8.5c0-4.7,3.8-8.5,8.5-8.5s8.5,3.8,8.5,8.5
			C366.9,252.2,363.1,256,358.4,256z"/>
	</g>
</g>
<g>
	<g>
		<path fill="#FFDA44" d="M426.7,221.9c-14.1,0-25.6,11.5-25.6,25.6s11.5,25.6,25.6,25.6s25.6-11.5,25.6-25.6
			S440.8,221.9,426.7,221.9z M426.7,256c-4.7,0-8.5-3.8-8.5-8.5c0-4.7,3.8-8.5,8.5-8.5s8.5,3.8,8.5,8.5
			C435.2,252.2,431.4,256,426.7,256z"/>
	</g>
</g>
<g>
	<g>
		<path fill="#FFDA44" d="M85.3,221.9c-14.1,0-25.6,11.5-25.6,25.6s11.5,25.6,25.6,25.6s25.6-11.5,25.6-25.6S99.5,221.9,85.3,221.9z
			 M85.3,256c-4.7,0-8.5-3.8-8.5-8.5c0-4.7,3.8-8.5,8.5-8.5s8.5,3.8,8.5,8.5C93.9,252.2,90,256,85.3,256z"/>
	</g>
</g>
<g>
	<g>
		<path fill="#FFDA44" d="M153.6,221.9c-14.1,0-25.6,11.5-25.6,25.6s11.5,25.6,25.6,25.6s25.6-11.5,25.6-25.6
			S167.7,221.9,153.6,221.9z M153.6,256c-4.7,0-8.5-3.8-8.5-8.5c0-4.7,3.8-8.5,8.5-8.5c4.7,0,8.5,3.8,8.5,8.5
			C162.1,252.2,158.3,256,153.6,256z"/>
	</g>
</g>
<g>
	<path fill="#FFDA44" d="M508.8,53.1l-42.7-34.1c-1.5-1.2-3.4-1.9-5.3-1.9H51.2c-1.9,0-3.8,0.7-5.3,1.9L3.2,53.1
		c-2,1.6-3.2,4.1-3.2,6.7v204.8c0,2.6,1.2,5,3.2,6.7l42.7,34.1c1.5,1.2,3.4,1.9,5.3,1.9h145.1v51.2h-25.6c-4.7,0-8.5,3.8-8.5,8.5
		v119.5c0,4.7,3.8,8.5,8.5,8.5h170.7c4.7,0,8.5-3.8,8.5-8.5V366.9c0-4.7-3.8-8.5-8.5-8.5h-25.6v-51.2h145.1c1.9,0,3.8-0.7,5.3-1.9
		l42.7-34.1c2-1.6,3.2-4.1,3.2-6.7V59.7C512,57.1,510.8,54.7,508.8,53.1z M54.2,290.1l-37.1-29.7v-80.5l28.8,23
		c1.5,1.2,3.4,1.9,5.3,1.9h145.1v85.3H54.2z M332.8,375.5v102.4H179.2V375.5H332.8z M298.7,307.2v51.2h-85.3v-51.2H298.7z
		 M213.3,290.1v-85.3h85.3v85.3H213.3z M54.2,187.7l-32-25.6l32-25.6h403.6l32,25.6l-32,25.6H54.2z M494.9,260.4l-37.1,29.7H315.7
		v-85.3h145.1c1.9,0,3.8-0.7,5.3-1.9l28.8-23V260.4z M494.9,144.4l-28.8-23c-1.5-1.2-3.4-1.9-5.3-1.9H51.2c-1.9,0-3.8,0.7-5.3,1.9
		l-28.8,23V63.8l37.1-29.7h403.6l37.1,29.7V144.4z"/>
</g>
</svg>
