<?xml version="1.0" encoding="utf-8"?>
<!-- Generator: Adobe Illustrator 20.1.0, SVG Export Plug-In . SVG Version: 6.00 Build 0)  -->
<svg version="1.1" baseProfile="tiny" id="Capa_1" xmlns="http://www.w3.org/2000/svg" xmlns:xlink="http://www.w3.org/1999/xlink"
	 x="0px" y="0px" viewBox="0 0 512 512" overflow="scroll" xml:space="preserve">
<g>
	<g>
		<path fill="#FFDA44" d="M187.7,27.3c-37.6,0-68.3,42.1-68.3,93.9s30.6,93.9,68.3,93.9s68.3-42.1,68.3-93.9S225.4,27.3,187.7,27.3z
			 M187.7,197.9c-28.2,0-51.2-34.5-51.2-76.8s23-76.8,51.2-76.8s51.2,34.5,51.2,76.8S216,197.9,187.7,197.9z"/>
	</g>
</g>
<g>
	<g>
		<path fill="#FFDA44" d="M324.3,27.3c-37.6,0-68.3,42.1-68.3,93.9s30.6,93.9,68.3,93.9s68.3-42.1,68.3-93.9S361.9,27.3,324.3,27.3z
			 M324.3,197.9c-28.2,0-51.2-34.5-51.2-76.8s23-76.8,51.2-76.8s51.2,34.5,51.2,76.8S352.5,197.9,324.3,197.9z"/>
	</g>
</g>
<g>
	<g>
		<path fill="#FFDA44" d="M59.7,129.7C26.2,129.7,0,170.9,0,223.5c0,50.6,42.2,93.9,76.8,93.9c37.6,0,42.7-47.5,42.7-93.9
			C119.5,170.9,93.2,129.7,59.7,129.7z M76.8,300.3c-23.6,0-59.7-34.4-59.7-76.8c0-41.6,19.5-76.8,42.7-76.8s42.7,35.2,42.7,76.8
			C102.4,276.7,94.5,300.3,76.8,300.3z"/>
	</g>
</g>
<g>
	<g>
		<path fill="#FFDA44" d="M452.3,129.7c-33.5,0-59.7,41.2-59.7,93.9c0,46.4,5.1,93.9,42.7,93.9c34.6,0,76.8-43.3,76.8-93.9
			C512,170.9,485.8,129.7,452.3,129.7z M435.2,300.3c-17.7,0-25.6-23.7-25.6-76.8c0-41.6,19.5-76.8,42.7-76.8s42.7,35.2,42.7,76.8
			C494.9,265.9,458.8,300.3,435.2,300.3z"/>
	</g>
</g>
<g>
	<g>
		<path fill="#FFDA44" d="M256,215c-82.8,0-145.1,93.9-145.1,154.8c0,60.7,33.6,102.5,92.2,114.6c10.2,2.2,19.1-8.3,34.2-26.7
			c5.6-7.4,11.8-14.3,18.7-20.5c6.9,6.2,13.2,13.1,18.7,20.5c13.8,16.9,22.5,27,31.6,27c0.9,0,1.7-0.1,2.6-0.3
			c58.6-12.1,92.2-53.9,92.2-114.6C401.1,308.9,338.8,215,256,215z M306.8,467.4c-7-6.1-13.3-13-18.9-20.5
			c-14.1-17.3-22.6-27.2-31.9-27.2c-9.4,0-17.8,9.8-31.9,27.1c-5.6,7.5-11.9,14.3-18.9,20.5c-49.1-10.7-77.2-46.2-77.2-97.6
			c0-54.4,57.3-137.8,128-137.8s128,83.4,128,137.8C384,421.3,355.9,456.8,306.8,467.4z"/>
	</g>
</g>
<g>
	<g>
		<path fill="#FFDA44" d="M256,249.1c-59.9,0-110,72.2-110.9,119.3c-0.1,4.7,3.6,8.6,8.4,8.7c0,0,0,0,0,0h0.2c4.6,0,8.4-3.7,8.5-8.4
			c0.8-39.6,44.1-102.6,93.9-102.6c4.7,0,8.5-3.8,8.5-8.5C264.5,253,260.7,249.1,256,249.1z"/>
	</g>
</g>
</svg>
