<?xml version="1.0" encoding="utf-8"?>
<!-- Generator: Adobe Illustrator 20.1.0, SVG Export Plug-In . SVG Version: 6.00 Build 0)  -->
<svg version="1.1" baseProfile="tiny" id="Capa_1" xmlns="http://www.w3.org/2000/svg" xmlns:xlink="http://www.w3.org/1999/xlink"
	 x="0px" y="0px" viewBox="0 0 512 512" overflow="scroll" xml:space="preserve">
<g>
	<g>
		<path fill="#FFDA44" d="M443.7,0H68.3c-4.7,0-8.5,3.8-8.5,8.5v494.9c0,4.7,3.8,8.5,8.5,8.5h375.5c4.7,0,8.5-3.8,8.5-8.5V8.5
			C452.3,3.8,448.4,0,443.7,0z M435.2,494.9H76.8V17.1h358.4V494.9z"/>
	</g>
</g>
<g>
	<g>
		<path fill="#FFDA44" d="M392.5,51.2H119.5c-4.7,0-8.5,3.8-8.5,8.5v290.1c0,4.7,3.8,8.5,8.5,8.5h273.1c4.7,0,8.5-3.8,8.5-8.5V59.7
			C401.1,55,397.2,51.2,392.5,51.2z M384,341.3H128V68.3h256V341.3z"/>
	</g>
</g>
<g>
	<g>
		<path fill="#FFDA44" d="M162.1,409.6H128c-4.7,0-8.5,3.8-8.5,8.5s3.8,8.5,8.5,8.5h34.1c4.7,0,8.5-3.8,8.5-8.5
			S166.8,409.6,162.1,409.6z"/>
	</g>
</g>
<g>
	<g>
		<path fill="#FFDA44" d="M384,409.6H196.3c-4.7,0-8.5,3.8-8.5,8.5s3.8,8.5,8.5,8.5H384c4.7,0,8.5-3.8,8.5-8.5
			S388.7,409.6,384,409.6z"/>
	</g>
</g>
<g>
	<g>
		<path fill="#FFDA44" d="M162.1,443.7H128c-4.7,0-8.5,3.8-8.5,8.5s3.8,8.5,8.5,8.5h34.1c4.7,0,8.5-3.8,8.5-8.5
			S166.8,443.7,162.1,443.7z"/>
	</g>
</g>
<g>
	<g>
		<path fill="#FFDA44" d="M384,443.7H196.3c-4.7,0-8.5,3.8-8.5,8.5s3.8,8.5,8.5,8.5H384c4.7,0,8.5-3.8,8.5-8.5
			S388.7,443.7,384,443.7z"/>
	</g>
</g>
<g>
	<g>
		<path fill="#FFDA44" d="M358.4,290.1h-8.5v-42.7c0-4.7-3.8-8.5-8.5-8.5h-17.1v-51.2h25.6c4.7,0,8.5-3.8,8.5-8.5v-68.3
			c0-4.7-3.8-8.5-8.5-8.5H162.1c-4.7,0-8.5,3.8-8.5,8.5v68.3c0,4.7,3.8,8.5,8.5,8.5h25.6v51.2h-17.1c-4.7,0-8.5,3.8-8.5,8.5v42.7
			h-8.5c-4.7,0-8.5,3.8-8.5,8.5s3.8,8.5,8.5,8.5h204.8c4.7,0,8.5-3.8,8.5-8.5S363.1,290.1,358.4,290.1z M324.3,119.5h17.1v51.2
			h-17.1V119.5z M170.7,170.7v-51.2h17.1v51.2H170.7z M204.8,290.1h-25.6V256h25.6V290.1z M204.8,119.5h102.4v119.5h-25.6v-25.6
			c0-4.7-3.8-8.5-8.5-8.5h-34.1c-4.7,0-8.5,3.8-8.5,8.5v25.6h-25.6V119.5z M264.5,221.9v17.1h-17.1v-17.1H264.5z M290.1,290.1h-25.6
			v-8.5c0-4.7-3.8-8.5-8.5-8.5c-4.7,0-8.5,3.8-8.5,8.5v8.5h-25.6V256h68.3V290.1z M332.8,290.1h-25.6V256h25.6V290.1z"/>
	</g>
</g>
</svg>
